# xmcd
#
# Track frame offsets: 
#        150
#        17150
#        34110
#        51412
#        64567
#        84635
#        98340
#        111722
#        133090
#        151240
#        165810
#
# Disc length: 2439 seconds
#
# Revision: 3
# Processed by: cddbd v1.5.2PL0 Copyright (c) Steve Scherf et al.
# Submitted via: ExactAudioCopy v0.99pb5
#
DISCID=8509850b
DTITLE=Beaumont, Tex - One-Eyed Jacks
DYEAR=1997
DGENRE=Country
TTITLE0=One-Eyed Jacks
TTITLE1=Dancing In Dreamland
TTITLE2=Guess I'll Be Going Soon
TTITLE3=Bells Of Shoreditdc
TTITLE4=Powder Blue Chevrolet
TTITLE5=Baby I Just Want To Get On Your Ner
TTITLE6=Who Would I Love
TTITLE7=Poor Girl's Elvis, Poor Man's Maril
TTITLE8=Lolita
TTITLE9=Honky Tonk Eyes
TTITLE10=Closing Time
EXTD=YEAR: 1997
EXTT0=
EXTT1=
EXTT2=
EXTT3=
EXTT4=
EXTT5=
EXTT6=
EXTT7=
EXTT8=
EXTT9=
EXTT10=
PLAYORDER=
